<?xml version="1.0" encoding="utf-8"?>
<!-- Generator: Adobe Illustrator 23.0.1, SVG Export Plug-In . SVG Version: 6.00 Build 0)  -->
<svg version="1.1" xmlns="http://www.w3.org/2000/svg" xmlns:xlink="http://www.w3.org/1999/xlink" x="0px" y="0px"
	 viewBox="0 0 1125 2436" enable-background="new 0 0 1125 2436" xml:space="preserve">
<g id="Lager_3">
	<linearGradient id="SVGID_1_" gradientUnits="userSpaceOnUse" x1="-66.9959" y1="-131.9583" x2="1066.9781" y2="2299.8569">
		<stop  offset="0.083" style="stop-color:#11003F"/>
		<stop  offset="0.1793" style="stop-color:#110B4A"/>
		<stop  offset="0.3501" style="stop-color:#122967"/>
		<stop  offset="0.5753" style="stop-color:#135A96"/>
		<stop  offset="0.8432" style="stop-color:#149DD6"/>
		<stop  offset="1" style="stop-color:#15C7FF"/>
	</linearGradient>
	<rect fill="url(#SVGID_1_)" width="1125" height="2436"/>
	<path fill="#3E549B" d="M574,2268c-3-39.67-6-79.33-9-119"/>
	<path fill="#FFFFFF" d="M530,2436"/>
</g>
<g id="Lager_5">
	<g>
		<g>
			<path fill="#FFFFB0" d="M920.8,33.07c1.93,0,1.93-3,0-3C918.87,30.07,918.87,33.07,920.8,33.07L920.8,33.07z"/>
		</g>
	</g>
	<g>
		<g>
			<path fill="#FFFFB0" d="M788.67,36.24c1.93,0,1.93-3,0-3C786.74,33.24,786.74,36.24,788.67,36.24L788.67,36.24z"/>
		</g>
	</g>
	<g>
		<g>
			<path fill="#FFFFB0" d="M684.23,30.7c1.93,0,1.93-3,0-3C682.3,27.7,682.3,30.7,684.23,30.7L684.23,30.7z"/>
		</g>
	</g>
	<g>
		<g>
			<path fill="#FFFFB0" d="M548.14,48.1c1.93,0,1.93-3,0-3C546.21,45.1,546.21,48.1,548.14,48.1L548.14,48.1z"/>
		</g>
	</g>
	<g>
		<g>
			<path fill="#FFFFB0" d="M620.14,44.94c1.93,0,1.93-3,0-3C618.21,41.94,618.21,44.94,620.14,44.94L620.14,44.94z"/>
		</g>
	</g>
	<g>
		<g>
			<path fill="#FFFFB0" d="M692.93,80.54c1.93,0,1.93-3,0-3C691,77.54,691,80.54,692.93,80.54L692.93,80.54z"/>
		</g>
	</g>
	<g>
		<g>
			<path fill="#FFFFB0" d="M624.1,93.99c1.93,0,1.93-3,0-3C622.17,90.99,622.17,93.99,624.1,93.99L624.1,93.99z"/>
		</g>
	</g>
	<g>
		<g>
			<path fill="#FFFFB0" d="M554.47,141.47c1.93,0,1.93-3,0-3C552.54,138.47,552.54,141.47,554.47,141.47L554.47,141.47z"/>
		</g>
	</g>
	<g>
		<g>
			<path fill="#FFFFB0" d="M653.37,144.63c1.93,0,1.93-3,0-3C651.44,141.63,651.44,144.63,653.37,144.63L653.37,144.63z"/>
		</g>
	</g>
	<g>
		<g>
			<path fill="#FFFFB0" d="M760.98,143.05c1.93,0,1.93-3,0-3C759.05,140.05,759.04,143.05,760.98,143.05L760.98,143.05z"/>
		</g>
	</g>
	<g>
		<g>
			<path fill="#FFFFB0" d="M1069.55,131.97c1.93,0,1.93-3,0-3C1067.62,128.97,1067.62,131.97,1069.55,131.97L1069.55,131.97z"/>
		</g>
	</g>
	<g>
		<g>
			<path fill="#FFFFB0" d="M1037.9,176.28c1.93,0,1.93-3,0-3C1035.97,173.28,1035.97,176.28,1037.9,176.28L1037.9,176.28z"/>
		</g>
	</g>
	<g>
		<g>
			<path fill="#FFFFB0" d="M919.22,146.21c1.93,0,1.93-3,0-3C917.29,143.21,917.29,146.21,919.22,146.21L919.22,146.21z"/>
		</g>
	</g>
	<g>
		<g>
			<path fill="#FFFFB0" d="M900.23,98.74c1.93,0,1.93-3,0-3C898.3,95.74,898.3,98.74,900.23,98.74L900.23,98.74z"/>
		</g>
	</g>
	<g>
		<g>
			<path fill="#FFFFB0" d="M836.93,103.49c1.93,0,1.93-3,0-3C835,100.49,835,103.49,836.93,103.49L836.93,103.49z"/>
		</g>
	</g>
	<g>
		<g>
			<path fill="#FFFFB0" d="M825.86,136.72c1.93,0,1.93-3,0-3C823.93,133.72,823.92,136.72,825.86,136.72L825.86,136.72z"/>
		</g>
	</g>
	<g>
		<g>
			<path fill="#FFFFB0" d="M52.05,108.24c1.93,0,1.93-3,0-3C50.12,105.24,50.12,108.24,52.05,108.24L52.05,108.24z"/>
		</g>
	</g>
	<g>
		<g>
			<path fill="#FFFFB0" d="M42.56,54.43c1.93,0,1.93-3,0-3C40.63,51.43,40.63,54.43,42.56,54.43L42.56,54.43z"/>
		</g>
	</g>
	<g>
		<g>
			<path fill="#FFFFB0" d="M93.2,30.7c1.93,0,1.93-3,0-3C91.27,27.7,91.26,30.7,93.2,30.7L93.2,30.7z"/>
		</g>
	</g>
	<g>
		<g>
			<path fill="#FFFFB0" d="M241.95,29.12c1.93,0,1.93-3,0-3C240.01,26.12,240.01,29.12,241.95,29.12L241.95,29.12z"/>
		</g>
	</g>
	<g>
		<g>
			<path fill="#FFFFB0" d="M162.82,35.45c1.93,0,1.93-3,0-3C160.89,32.45,160.89,35.45,162.82,35.45L162.82,35.45z"/>
		</g>
	</g>
	<g>
		<g>
			<path fill="#FFFFB0" d="M96.36,176.28c1.93,0,1.93-3,0-3C94.43,173.28,94.43,176.28,96.36,176.28L96.36,176.28z"/>
		</g>
	</g>
	<g>
		<g>
			<path fill="#FFFFB0" d="M72.63,219.01c1.93,0,1.93-3,0-3C70.7,216.01,70.69,219.01,72.63,219.01L72.63,219.01z"/>
		</g>
	</g>
	<g>
		<g>
			<path fill="#FFFFB0" d="M131.18,241.16c1.93,0,1.93-3,0-3C129.25,238.16,129.24,241.16,131.18,241.16L131.18,241.16z"/>
		</g>
	</g>
	<g>
		<g>
			<path fill="#FFFFB0" d="M164.41,269.64c1.93,0,1.93-3,0-3C162.48,266.64,162.47,269.64,164.41,269.64L164.41,269.64z"/>
		</g>
	</g>
	<g>
		<g>
			<path fill="#FFFFB0" d="M397.02,109.82c1.93,0,1.93-3,0-3C395.09,106.82,395.09,109.82,397.02,109.82L397.02,109.82z"/>
		</g>
	</g>
	<g>
		<g>
			<path fill="#FFFFB0" d="M412.85,97.16c1.93,0,1.93-3,0-3C410.92,94.16,410.91,97.16,412.85,97.16L412.85,97.16z"/>
		</g>
	</g>
	<g>
		<g>
			<path fill="#FFFFB0" d="M393.86,60.76c1.93,0,1.93-3,0-3C391.93,57.76,391.92,60.76,393.86,60.76L393.86,60.76z"/>
		</g>
	</g>
	<g>
		<g>
			<path fill="#FFFFB0" d="M373.29,59.18c1.93,0,1.93-3,0-3C371.36,56.18,371.35,59.18,373.29,59.18L373.29,59.18z"/>
		</g>
	</g>
	<g>
		<g>
			<path fill="#FFFFB0" d="M343.22,62.35c1.93,0,1.93-3,0-3C341.29,59.35,341.29,62.35,343.22,62.35L343.22,62.35z"/>
		</g>
	</g>
	<g>
		<g>
			<path fill="#FFFFB0" d="M371.7,73.42c1.93,0,1.93-3,0-3C369.77,70.42,369.77,73.42,371.7,73.42L371.7,73.42z"/>
		</g>
	</g>
	<g>
		<g>
			<path fill="#FFFFB0" d="M368.54,84.5c1.93,0,1.93-3,0-3C366.61,81.5,366.6,84.5,368.54,84.5L368.54,84.5z"/>
		</g>
	</g>
	<g>
		<g>
			<path fill="#FFFFB0" d="M347.97,84.5c1.93,0,1.93-3,0-3C346.04,81.5,346.03,84.5,347.97,84.5L347.97,84.5z"/>
		</g>
	</g>
	<g>
		<g>
			<path fill="#FFFFB0" d="M360.63,176.28c1.93,0,1.93-3,0-3C358.7,173.28,358.69,176.28,360.63,176.28L360.63,176.28z"/>
		</g>
	</g>
	<g>
		<g>
			<path fill="#FFFFB0" d="M262.52,184.19c1.93,0,1.93-3,0-3C260.59,181.19,260.58,184.19,262.52,184.19L262.52,184.19z"/>
		</g>
	</g>
	<g>
		<g>
			<path fill="#FFFFB0" d="M243.53,241.16c1.93,0,1.93-3,0-3C241.6,238.16,241.59,241.16,243.53,241.16L243.53,241.16z"/>
		</g>
	</g>
	<g>
		<g>
			<path fill="#FFFFB0" d="M105.86,89.25c1.93,0,1.93-3,0-3C103.93,86.25,103.92,89.25,105.86,89.25L105.86,89.25z"/>
		</g>
	</g>
	<g>
		<g>
			<path fill="#FFFFB0" d="M200.8,95.58c1.93,0,1.93-3,0-3C198.87,92.58,198.87,95.58,200.8,95.58L200.8,95.58z"/>
		</g>
	</g>
	<g>
		<g>
			<path fill="#FFFFB0" d="M273.59,206.35c1.93,0,1.93-3,0-3C271.66,203.35,271.66,206.35,273.59,206.35L273.59,206.35z"/>
		</g>
	</g>
	<g>
		<g>
			<path fill="#FFFFB0" d="M289.42,130.39c1.93,0,1.93-3,0-3C287.49,127.39,287.48,130.39,289.42,130.39L289.42,130.39z"/>
		</g>
	</g>
	<g>
		<g>
			<path fill="#FFFFB0" d="M178.65,162.04c1.93,0,1.93-3,0-3C176.72,159.04,176.71,162.04,178.65,162.04L178.65,162.04z"/>
		</g>
	</g>
</g>
<g id="Lager_6" display="none">
	<rect x="223.92" y="1218.72" display="inline" fill="#1C468E" width="634.26" height="1217.28"/>
	<polygon display="inline" fill="#2D60AA" points="964,2392.1 858.19,2445 858.19,1218.72 964,1271.61 	"/>
	<polyline display="inline" fill="#2D60AA" points="676.69,1133 697.51,1139.95 697.51,1218.72 676.69,1218.72 	"/>
	<rect x="399.57" y="1133" display="inline" fill="#133C6D" width="277.12" height="85.72"/>
	<path display="inline" fill="#2D60AA" d="M194,1218.72"/>
	<path display="inline" fill="#1C468E" d="M945.36,2173.18"/>
	<rect x="772.92" y="2344.61" display="inline" fill="#2D609E" width="52.18" height="64.87"/>
	<rect x="691.07" y="2344.61" display="inline" fill="#2D609E" width="52.18" height="64.87"/>
	<rect x="603.74" y="2344.61" display="inline" fill="#2D609E" width="52.18" height="64.87"/>
	<rect x="515.85" y="2344.61" display="inline" fill="#2D609E" width="52.18" height="64.87"/>
	<rect x="428.51" y="2344.61" display="inline" fill="#2D609E" width="52.18" height="64.87"/>
	<rect x="346.67" y="2344.61" display="inline" fill="#2D609E" width="52.18" height="64.87"/>
	<rect x="259.33" y="2344.61" display="inline" fill="#2D609E" width="52.18" height="64.87"/>
	<rect x="771.67" y="2258.9" display="inline" fill="#2D609E" width="52.18" height="64.87"/>
	<rect x="689.83" y="2258.9" display="inline" fill="#2D609E" width="52.18" height="64.87"/>
	<rect x="602.49" y="2258.9" display="inline" fill="#2D609E" width="52.18" height="64.87"/>
	<rect x="514.61" y="2258.9" display="inline" fill="#2D609E" width="52.18" height="64.87"/>
	<rect x="427.27" y="2258.9" display="inline" fill="#2D609E" width="52.18" height="64.87"/>
	<rect x="345.43" y="2258.9" display="inline" fill="#2D609E" width="52.18" height="64.87"/>
	<rect x="258.09" y="2258.9" display="inline" fill="#2D609E" width="52.18" height="64.87"/>
	<rect x="772.3" y="2173.18" display="inline" fill="#2D609E" width="52.18" height="64.87"/>
	<rect x="690.45" y="2173.18" display="inline" fill="#2D609E" width="52.18" height="64.87"/>
	<rect x="603.12" y="2173.18" display="inline" fill="#2D609E" width="52.18" height="64.87"/>
	<rect x="515.23" y="2173.18" display="inline" fill="#2D609E" width="52.18" height="64.87"/>
	<rect x="427.89" y="2173.18" display="inline" fill="#2D609E" width="52.18" height="64.87"/>
	<rect x="346.05" y="2173.18" display="inline" fill="#2D609E" width="52.18" height="64.87"/>
	<rect x="258.71" y="2173.18" display="inline" fill="#2D609E" width="52.18" height="64.87"/>
	<rect x="772.1" y="2070.47" display="inline" fill="#2D609E" width="52.18" height="64.87"/>
	<rect x="690.25" y="2070.47" display="inline" fill="#2D609E" width="52.18" height="64.87"/>
	<rect x="602.92" y="2070.47" display="inline" fill="#2D609E" width="52.18" height="64.87"/>
	<rect x="515.03" y="2070.47" display="inline" fill="#2D609E" width="52.18" height="64.87"/>
	<rect x="427.69" y="2070.47" display="inline" fill="#2D609E" width="52.18" height="64.87"/>
	<rect x="345.85" y="2070.47" display="inline" fill="#2D609E" width="52.18" height="64.87"/>
	<rect x="258.51" y="2070.47" display="inline" fill="#2D609E" width="52.18" height="64.87"/>
	<rect x="770.86" y="1984.76" display="inline" fill="#2D609E" width="52.18" height="64.87"/>
	<rect x="689.01" y="1984.76" display="inline" fill="#2D609E" width="52.18" height="64.87"/>
	<rect x="601.67" y="1984.76" display="inline" fill="#2D609E" width="52.18" height="64.87"/>
	<rect x="513.79" y="1984.76" display="inline" fill="#2D609E" width="52.18" height="64.87"/>
	<rect x="426.45" y="1984.76" display="inline" fill="#2D609E" width="52.18" height="64.87"/>
	<rect x="344.61" y="1984.76" display="inline" fill="#2D609E" width="52.18" height="64.87"/>
	<rect x="257.27" y="1984.76" display="inline" fill="#2D609E" width="52.18" height="64.87"/>
	<rect x="771.48" y="1899.04" display="inline" fill="#2D609E" width="52.18" height="64.87"/>
	<rect x="689.63" y="1899.04" display="inline" fill="#2D609E" width="52.18" height="64.87"/>
	<rect x="602.3" y="1899.04" display="inline" fill="#2D609E" width="52.18" height="64.87"/>
	<rect x="514.41" y="1899.04" display="inline" fill="#2D609E" width="52.18" height="64.87"/>
	<rect x="427.07" y="1899.04" display="inline" fill="#2D609E" width="52.18" height="64.87"/>
	<rect x="345.23" y="1899.04" display="inline" fill="#2D609E" width="52.18" height="64.87"/>
	<rect x="257.89" y="1899.04" display="inline" fill="#2D609E" width="52.18" height="64.87"/>
	<path display="inline" fill="#1C468E" d="M945.36,1560.04"/>
	<rect x="769.64" y="1799.12" display="inline" fill="#2D609E" width="52.18" height="64.87"/>
	<rect x="687.8" y="1799.12" display="inline" fill="#2D609E" width="52.18" height="64.87"/>
	<rect x="600.46" y="1799.12" display="inline" fill="#2D609E" width="52.18" height="64.87"/>
	<rect x="512.57" y="1799.12" display="inline" fill="#2D609E" width="52.18" height="64.87"/>
	<rect x="425.24" y="1799.12" display="inline" fill="#2D609E" width="52.18" height="64.87"/>
	<rect x="343.39" y="1799.12" display="inline" fill="#2D609E" width="52.18" height="64.87"/>
	<rect x="256.06" y="1799.12" display="inline" fill="#2D609E" width="52.18" height="64.87"/>
	<rect x="768.4" y="1713.4" display="inline" fill="#2D609E" width="52.18" height="64.87"/>
	<rect x="686.55" y="1713.4" display="inline" fill="#2D609E" width="52.18" height="64.87"/>
	<rect x="599.22" y="1713.4" display="inline" fill="#2D609E" width="52.18" height="64.87"/>
	<rect x="511.33" y="1713.4" display="inline" fill="#2D609E" width="52.18" height="64.87"/>
	<rect x="423.99" y="1713.4" display="inline" fill="#2D609E" width="52.18" height="64.87"/>
	<rect x="342.15" y="1713.4" display="inline" fill="#2D609E" width="52.18" height="64.87"/>
	<rect x="254.81" y="1713.4" display="inline" fill="#2D609E" width="52.18" height="64.87"/>
	<rect x="769.02" y="1627.68" display="inline" fill="#2D609E" width="52.18" height="64.87"/>
	<rect x="687.18" y="1627.68" display="inline" fill="#2D609E" width="52.18" height="64.87"/>
	<rect x="599.84" y="1627.68" display="inline" fill="#2D609E" width="52.18" height="64.87"/>
	<rect x="511.95" y="1627.68" display="inline" fill="#2D609E" width="52.18" height="64.87"/>
	<rect x="424.62" y="1627.68" display="inline" fill="#2D609E" width="52.18" height="64.87"/>
	<rect x="342.77" y="1627.68" display="inline" fill="#2D609E" width="52.18" height="64.87"/>
	<rect x="255.44" y="1627.68" display="inline" fill="#2D609E" width="52.18" height="64.87"/>
	<path display="inline" fill="#1C468E" d="M945.36,1253.47"/>
	<path display="inline" fill="#1C468E" d="M676.67,910.33"/>
	<rect x="768.82" y="1527.76" display="inline" fill="#2D609E" width="52.18" height="64.87"/>
	<rect x="686.98" y="1527.76" display="inline" fill="#2D609E" width="52.18" height="64.87"/>
	<rect x="599.64" y="1527.76" display="inline" fill="#2D609E" width="52.18" height="64.87"/>
	<rect x="511.75" y="1527.76" display="inline" fill="#2D609E" width="52.18" height="64.87"/>
	<rect x="424.42" y="1527.76" display="inline" fill="#2D609E" width="52.18" height="64.87"/>
	<rect x="342.57" y="1527.76" display="inline" fill="#2D609E" width="52.18" height="64.87"/>
	<rect x="255.24" y="1527.76" display="inline" fill="#2D609E" width="52.18" height="64.87"/>
	<rect x="767.58" y="1442.04" display="inline" fill="#2D609E" width="52.18" height="64.87"/>
	<rect x="685.73" y="1442.04" display="inline" fill="#2D609E" width="52.18" height="64.87"/>
	<rect x="598.4" y="1442.04" display="inline" fill="#2D609E" width="52.18" height="64.87"/>
	<rect x="510.51" y="1442.04" display="inline" fill="#2D609E" width="52.18" height="64.87"/>
	<rect x="423.18" y="1442.04" display="inline" fill="#2D609E" width="52.18" height="64.87"/>
	<rect x="341.33" y="1442.04" display="inline" fill="#2D609E" width="52.18" height="64.87"/>
	<rect x="254" y="1442.04" display="inline" fill="#2D609E" width="52.18" height="64.87"/>
	<rect x="768.2" y="1356.33" display="inline" fill="#2D609E" width="52.18" height="64.87"/>
	<rect x="686.36" y="1356.33" display="inline" fill="#2D609E" width="52.18" height="64.87"/>
	<rect x="599.02" y="1356.33" display="inline" fill="#2D609E" width="52.18" height="64.87"/>
	<rect x="511.13" y="1356.33" display="inline" fill="#2D609E" width="52.18" height="64.87"/>
	<rect x="423.8" y="1356.33" display="inline" fill="#2D609E" width="52.18" height="64.87"/>
	<rect x="341.95" y="1356.33" display="inline" fill="#2D609E" width="52.18" height="64.87"/>
	<rect x="254.62" y="1356.33" display="inline" fill="#2D609E" width="52.18" height="64.87"/>
	
		<text transform="matrix(0.8424 0 0 1 462.4028 1190.6626)" display="inline" fill="#EAEA00" font-family="'Broadway'" font-size="54.0553px">Casino</text>
	<rect x="554.43" y="1247.75" display="inline" fill="#2D609E" width="265.4" height="86.18"/>
	<rect x="253.8" y="1247.75" display="inline" fill="#2D609E" width="265.4" height="86.18"/>
	<path display="inline" fill="#2D60AA" d="M1172,1261.72"/>
</g>
<g id="Lager_4" display="none">
	<path display="inline" fill="#FFFFFF" d="M1264,1928"/>
	<path display="inline" fill="none" d="M1492,1832"/>
	<path display="inline" fill="#A9D0FF" d="M808.5,2024.5C431,2024.5,397,2436,397,2436h728v-569.78
		C1110.84,1933.15,1047.71,2024.5,808.5,2024.5z"/>
</g>
<g id="Lager_1">
	
		<radialGradient id="SVGID_2_" cx="172.6553" cy="495" r="83" gradientTransform="matrix(4.1988 0 0 1.8253 -152.4442 -404.0241)" gradientUnits="userSpaceOnUse">
		<stop  offset="0" style="stop-color:#E96800;stop-opacity:0.25"/>
		<stop  offset="1" style="stop-color:#000000;stop-opacity:0"/>
	</radialGradient>
	<ellipse fill="url(#SVGID_2_)" cx="572.5" cy="499.5" rx="348.5" ry="151.5"/>
	<g>
		<path fill="#F2E606" d="M472.48,430.24c0.08-4.01,1.14-7.94,1.78-11.87c0.58-3.61,1.78-7.2,2.94-10.68
			c0.63-1.9,1.75-3.33,2.89-4.94"/>
		<g>
			<path fill="#BBD13B" d="M473.98,430.24c0.46-8.65,2.32-19.58,7.41-26.74c1.12-1.58-1.48-3.08-2.59-1.51
				c-5.49,7.72-7.32,18.93-7.82,28.25C470.88,432.17,473.88,432.17,473.98,430.24L473.98,430.24z"/>
		</g>
	</g>
	<g>
		<path fill="#F2E606" d="M694.94,383.69c-3.37-0.6-7.9-2.06-10.25-4.67c-0.05-0.06-0.08-0.12-0.11-0.18
			c-0.08-0.03-0.17-0.08-0.24-0.16c-5.53-5.89-8.05-11.58-5.13-19.5c1.55-4.2,4.63-9.42,8.96-11.77c-3.72,0.41-7.17,1.63-10.3,4.01
			c-3.52,2.68-7.08,7.73-7.13,12.37c0,0.16-0.06,0.29-0.14,0.39c0,0.06,0.01,0.11,0,0.18c-1.55,8.39,3.13,15.78,10.06,20.21
			c3.8,2.43,7.34,3.22,11.9,3.15c4.26-0.06,7.16-1.16,10.24-3.35C700.2,384.61,697.39,384.12,694.94,383.69z"/>
		<path fill="#F2E606" d="M705.36,382.37c-2.82,1.31-8.33,0.41-11.41-0.28c-2.79-0.62-6.36-1.82-8.32-4.01
			c-0.07-0.08-0.16-0.14-0.24-0.17c-0.03-0.06-0.06-0.12-0.11-0.18c-5.16-5.49-7.52-10.83-4.79-18.23
			c1.75-4.74,5.61-10.97,11.11-11.97c0.44-0.08,0.54-0.46,0.43-0.79c0.1-0.38-0.1-0.85-0.61-0.85c-5.52-0.05-10.65,1.33-14.99,4.91
			c-3.56,2.93-6.96,8.18-7.01,12.93c-0.04,0.06-0.08,0.14-0.09,0.23c-1.65,8.92,3.05,17.02,10.67,21.69
			c4.69,2.88,8.72,3.52,14.23,3.28c5.19-0.23,7.88-2.15,11.78-5.44c0.01,0,0.02-0.01,0.02-0.01
			C706.8,383.14,706.13,382.01,705.36,382.37z M692.56,387.69c-4.56,0.07-8.09-0.72-11.9-3.15c-6.93-4.42-11.61-11.82-10.06-20.21
			c0.01-0.06,0-0.12,0-0.18c0.08-0.1,0.14-0.22,0.14-0.39c0.05-4.64,3.61-9.69,7.13-12.37c3.14-2.38,6.58-3.61,10.3-4.01
			c-4.32,2.35-7.41,7.57-8.96,11.77c-2.92,7.92-0.4,13.62,5.13,19.5c0.08,0.08,0.16,0.13,0.24,0.16c0.03,0.06,0.05,0.12,0.11,0.18
			c2.35,2.62,6.88,4.07,10.25,4.67c2.45,0.44,5.25,0.93,7.86,0.66C699.72,386.53,696.82,387.63,692.56,387.69z"/>
	</g>
	<g>
		<path fill="#F2E606" d="M669.62,452.53c-1.55,2.41-0.22,3.21,1.68,3.97c0.23,0.09,0.65-0.5,0.96-0.36
			c0.51,0.23,1.01,0.07,1.51,0.37c1.89,1.12,1.73,4.94,1.76,6.67c0.21,12.02-0.83,24.13-0.93,36.17c0.15,0.16,0.26,0.37,0.26,0.65
			c0,0.14,0,0.27,0,0.41c0.15,0.16,0.26,0.36,0.27,0.64c0.18,9.64,1.69,19.18,1.6,28.82c-0.09,9.21-0.88,18.4-1.22,27.6
			c-0.28,7.44-2.24,24.06,6.51,27.16c5.23,1.85,11,0.24,16.27,2.53c0.07,0.03,0.11,0.08,0.17,0.12c0.04-0.02,0.1-0.02,0.14-0.03
			c0.27-3.07-2.43-5.64-3.23-8.48c-0.62-2.19-0.64-4.51-0.81-6.76c-0.54-6.92-0.92-13.8-1-20.74c-0.01-0.05-0.03-0.09-0.03-0.15
			c0-0.2,0.01-0.41,0.02-0.61c0-0.32-0.01-0.65-0.02-0.97c0-0.09,0.03-0.15,0.05-0.23c0.27-11.07,1.21-21.94,0.53-33.06
			c-0.71-11.58-0.75-22.78-0.17-34.36c0.42-8.47,0.22-16.96,1.19-25.4c0.51-4.43,3.45-14.8,0.69-18.73
			c-0.01-0.01-0.01-0.02-0.01-0.03c-9.6-0.22-20.68,6.53-26.07,14.1C669.79,452.05,669.77,452.29,669.62,452.53z"/>
		<path fill="#F2E606" d="M537.3,583.74c13.91-0.15,16.28-21.34,16.4-31.2c0-0.14,0.04-0.26,0.08-0.37
			c-4.31,0.38-7.1,4.99-11.75,3.12c-5.02-2.02-6.7-8.59-7.39-13.27c-1.97-13.32,2.88-25.59,13.92-33.63c3.51-2.56,9.29-5,13.39-2.08
			c3.37,2.4,2.95,7.22,2.84,10.79c-0.55,18.72-4,37.41-1.88,56.18c0.03,0.29-0.06,0.51-0.2,0.67c0.01,0.17,0.01,0.35,0.03,0.52
			c0.02,0.22-0.04,0.39-0.13,0.53c2.25,6.33,6.68,9.34,13.43,9.87c1.97,0.16,4.66,0.42,6.46-0.46c6.1-2.98,2.03-6.98,0.7-10.95
			c-3.19-9.54-4.3-21.22-4.83-31.15c-0.29-5.42,1.17-10.86,1.3-16.31c0.15-6.8,0.14-13.6,0.38-20.4c0.43-12.26-0.42-24.44-0.53-36.7
			c0-0.14,0.03-0.25,0.07-0.36c-0.04-0.1-0.07-0.21-0.07-0.34c-0.02-8.21,0.07-17.88-5.87-24.39c-4.48-4.91-11.44-7.87-18.11-8.3
			c-9.7-0.62-25.47,3.63-28.88,13.63c-0.13,0.38-0.41,0.57-0.72,0.64c-0.02,0.07-0.02,0.14-0.06,0.21
			c-4.14,7.94-5.06,17.16-1.77,25.58c2.4,6.15,8.42,12.03,13.89,5.11c3.7-4.68,2.91-9.34,3.06-14.87c0.19-7.14,3.3-15.92,12.21-15
			c11.4,1.17,13.91,14.53,13.1,23.62c-0.86,9.59-6.13,18.38-16.46,19.74c-0.11,0.38-0.41,0.69-0.93,0.69
			c-4.51-0.03-9.95,4.81-13.52,7.25c-6.35,4.35-10.71,10.8-13.13,17.93c-3.69,10.92-5.3,23.76-5.28,35.21
			C517.1,567.3,521.79,583.9,537.3,583.74z"/>
		<path fill="#F2E606" d="M609.24,582.6c18.16,5.93,21.33-18.23,18.81-30.23c-3.87,0.99-7.56,2.27-10.9-0.79
			c-3.88-3.55-4.33-10.38-5.34-15.15c-3.16-14.94-3.89-31.52-2.92-46.73c0.75-11.82,3.83-28.02,14.01-35.8
			c4.03-3.08,15.15-6.91,16.7,0.49c0.03,0.13,0.02,0.25,0,0.37c0.54-0.04,1.11,0.27,1.11,0.95c-0.07,17.28-0.8,34.45-0.3,51.73
			c0.49,16.56,0.43,33.17,0.12,49.73c-0.31,16.86-0.37,33.88-1.56,50.71c-0.54,7.62-2.44,15.04-3.19,22.64
			c-0.6,6.02-0.83,11.93-2.92,17.66c6.38,0.15,12.47,1.9,18.8,0.06c1.82-21.84,4.27-43.57,4.37-65.53
			c0.1-22.81-0.51-45.67-0.68-68.49c0-0.35,0.15-0.59,0.37-0.75c-0.04-0.6-0.09-1.2-0.13-1.8c-0.13-0.16-0.23-0.35-0.23-0.61
			c0-0.18,0-0.35,0-0.53c0-0.46,0.26-0.74,0.59-0.87c0.28-26.09,2.41-52.13,2.1-78.23c-5.2,1.23-9.6,4.4-14.77,5.72
			c-0.13,0.05-0.28,0.06-0.44,0.04c-0.04,0-0.08,0-0.12-0.01c-0.02-0.01-0.04,0-0.06-0.01c-12.79-3.92-24.85-1.44-33.15,9.54
			c-6.61,8.74-9.86,20.02-12.31,30.49c-5.02,21.51-4.65,43.92-4.35,65.85C593.01,554.82,595.66,578.17,609.24,582.6z"/>
		<path fill="#F2E606" d="M711.97,539.53c0,0.27-0.1,0.47-0.24,0.63c0.52,9.59,0.13,20.11,5.75,28.41
			c6.13,9.06,13.68,15.38,25.02,15.95c5.42,0.27,11.74-0.16,16.07-3.75c4.62-3.84,7.01-10.77,8.62-16.21
			c3.19-10.77,1.41-20.19,0.7-30.83c-2.39,7.85-2.68,15.08-10.71,19.71c-6.51,3.75-12.65,2.52-18.35-2.04
			c-11.74-9.4-12.85-25.93-13.02-39.66c-0.19-15.24,0.02-32.74,4.8-47.47c2.39-7.36,11.58-20.18,21.04-13.63
			c3.82,2.65,4.88,8.3,5.36,12.51c0.78,6.94-2.62,11.56-5.5,17.56c0.03,0.26-0.05,0.53-0.3,0.76c-3.65,3.32,0.31,7.83,2.68,10.44
			c0.74,0.82,1.44,1.7,2.25,2.45c2.88,2.63,5.85,0.04,7.59-2.47c4.04-5.82,5.43-11.79,7.01-18.51c0.04-0.18,0.13-0.32,0.23-0.43
			c-0.12-13.42-1.8-33.73-18.02-37.49c-14.29-3.31-25.34,7.72-31.19,19.15c-3.15,6.16-5.6,12.82-7.28,19.5
			c-1.7,6.75-1.48,13.75-2.47,20.61c-1.1,7.62-1.87,15.81-1.68,23.51C710.51,525.34,711.85,532.42,711.97,539.53z"/>
		<path fill="#F2E606" d="M383.68,577.89c7.35,0.72,14.59-0.01,21.76-2.17c-0.43-56.69-0.85-113.39-1.28-170.08
			c-0.01-0.74,0.66-1.04,1.23-0.93c0.44-0.38,1.16-0.45,1.51,0.21c12.98,24.67,12.33,55.2,16.2,82.14
			c2.2,15.31,4.72,30.58,7.55,45.79c1.34,7.18,2.75,14.35,4.23,21.51c0.42,2.04,4.37,23.37,6.76,22.17
			c0.48-0.24,0.92-0.09,1.21,0.21c10.7-48.01,20.21-96.27,28.53-144.74c-0.05-0.11-0.07-0.23-0.06-0.36
			c0.06-0.61,0.4-1.16,0.45-1.76c0.03-0.31,0.17-0.55,0.37-0.71c-0.38-9.56,2-18.67,7.07-26.89c0.23-0.38,0.59-0.49,0.93-0.46
			c0.16-0.21,0.41-0.36,0.76-0.36c0.04,0,0.09,0,0.13,0c0.72,0,1.03,0.59,0.96,1.13c0.42,0.08,0.77,0.38,0.75,0.93
			c-2.27,55.94-3.18,111.92-2.72,167.9c0.09,0.14,0.15,0.3,0.15,0.52c-0.01,0.45-0.07,0.89-0.17,1.32
			c-0.01,0.03-0.02,0.04-0.03,0.07c-0.01,0.06-0.01,0.12-0.03,0.18c0.11,0.24,0.14,0.52,0.06,0.77c0.04,0.07,0.09,0.12,0.12,0.2
			c3.51,10.05,16.62,11.26,22.17,2.18c0.19-0.3,0.46-0.44,0.73-0.46c-0.01-0.06-0.04-0.1-0.04-0.16
			c-2.65-75.26-1.29-150.61,4.07-225.73c-0.22-0.2-0.41-0.42-0.58-0.66c-0.1-0.01-0.19-0.01-0.3-0.06
			c-13.21-5.45-26.59,3.82-32.23,15.43c-6.01,12.36-6.03,26.9-7.77,40.24c-3.51,26.91-9.1,53.51-16.56,79.63
			c-0.32,1.13-1.96,0.78-1.99-0.22c-0.08-0.14-0.14-0.29-0.14-0.49c0-1.01,0-2.02,0-3.03c0,0,0-0.01,0-0.01
			c-0.01-0.03-0.04-0.05-0.05-0.09c-13.71-42.79-21.23-87.18-22.39-132.01c-14.65-0.5-28.51,3.54-40.48,11.75
			c-0.08,0.1-0.2,0.18-0.35,0.25c-0.02,0.01-0.04,0.02-0.06,0.03c-0.22,0.15-0.44,0.3-0.66,0.45c-0.06,0.04-0.11,0.05-0.17,0.08
			c-0.42,0.36-0.76,0.79-1.05,1.27c-0.1,0.3-0.21,0.61-0.31,0.91c-0.08,0.22-0.21,0.37-0.37,0.48c0,0.01,0.01,0.02,0.01,0.04
			c9.56,69.94,10.68,140.77,3.33,210.97c-0.02,0.2-0.1,0.36-0.2,0.5C384.75,576.82,384.33,577.47,383.68,577.89z"/>
		<path fill="#F2E606" d="M785.09,634.13c-10.73-7.96-24.23-8.5-37.02-6.04c-18.45,3.55-32.14,12.25-46.55,23.73
			c-17.74,14.14-35.1,28.74-52.82,42.91c-28.55,22.83-66.06,29.86-101.97,33.41c-24.34,2.41-48.97,1.81-73.16-1.75
			c-22.45-3.3-46.08-7.11-67.09-15.81c-19.04-7.89-33.53-21.49-33.27-42.94c0.13-10.98,4.33-21.23,12.07-29.15
			c6.55-6.71,15.37-10.71,21.96-17.27c5.37-5.36,4.48-15.25-4.84-16.35c-2.86-0.34-6.1,1.3-8.47,2.62
			c-7.56,4.21-13.83,10.87-19.21,17.45c-12.1,14.82-25.06,36.67-21.24,56.45c4.89,25.33,39.78,37.97,61.35,44.8
			c37.5,11.87,77.84,15.88,117.1,14.56c42.09-1.41,85.25-9.31,122.85-28.55c17.61-9.01,32.17-20.95,46.84-33.88
			c14.97-13.18,32.65-29.08,53.21-32.55c19.21-3.24,29.95,10.35,38.54,25c1.31,2.23,2.93,6.87,5.2,4.15
			c1.86-2.23,1.09-8.28,0.88-10.94C798.56,652.73,793.91,641.6,785.09,634.13z"/>
		<path fill="#F2E606" d="M377.45,578.93c0.17,0.15,0.4,0.22,0.67,0.2c9.83,1.84,19.51,1.26,29.02-1.81
			c0.88-0.28,0.86-1.33,0.33-1.77c-0.42-55.82-0.84-111.63-1.26-167.45c7.18,14.82,8.92,31.11,10.77,47.28
			c1.82,15.88,3.96,31.73,6.45,47.52c2.61,16.55,5.6,33.05,8.96,49.47c0.86,4.21,1.75,8.42,2.66,12.62
			c0.77,3.57,0.94,8.3,2.65,11.53c1.06,2,2.31,2.74,4.21,2.06c0.16,0.17,0.38,0.29,0.68,0.3c0.39,0.02,0.72-0.07,1.05-0.27
			c0.03-0.02,0.04-0.04,0.06-0.06c0.43,0.04,0.86-0.16,0.98-0.7c10.85-48.67,20.49-97.58,28.9-146.71c0.02-0.12,0.01-0.23-0.01-0.34
			c0-0.01,0.01-0.02,0.01-0.03c0.35-0.12,0.63-0.42,0.6-0.9c-0.5-9.33,1.68-18.07,6.51-26.1c-2.28,56.12-3.18,112.28-2.71,168.45
			c0,0.13,0.04,0.23,0.07,0.33c-0.01,0.06-0.01,0.13-0.02,0.19c-0.04,0.19-0.03,0.35,0.02,0.5c0.01,0.12,0.04,0.24,0.1,0.35
			c-0.09,0.26-0.08,0.54,0.02,0.8c-0.08,0.18-0.1,0.39-0.02,0.63c4.07,11.65,19.43,13.24,25.9,2.66c0.15-0.24,0.16-0.48,0.11-0.69
			c0.46-0.05,0.88-0.35,0.86-0.94c-2.66-75.45-1.29-151,4.11-226.31c0.04-0.56-0.32-0.85-0.75-0.93c-0.2-0.21-0.38-0.44-0.51-0.74
			c-0.19-0.44-0.77-0.55-1.21-0.42c-9.4-3.85-19.51-0.61-26.8,5.95c-9.22,8.29-11.94,20.93-13.47,32.59
			c-4.14,31.53-8.99,62.44-17.35,93.14c-13.45-42.36-20.84-86.27-21.96-130.63c-0.01-0.54-0.39-0.85-0.82-0.93
			c-0.11-0.38-0.41-0.71-0.93-0.73c-15.24-0.58-29.78,3.66-42.2,12.3c-0.62,0.27-1.13,0.67-1.57,1.13c-0.36,0.04-0.7,0.24-0.85,0.67
			c-0.11,0.33-0.23,0.66-0.34,0.98c-0.34,0.61-0.62,1.25-0.89,1.87c-0.12,0.27-0.03,0.56,0.14,0.8
			c9.47,69.57,10.59,140.02,3.33,209.85c-0.19,0.16-0.31,0.4-0.27,0.74c0.12,1.14-0.8,1.27-1.79,1.4c-0.98,0.13-2.01,0.11-2.97,0.37
			c-0.02,0-0.05,0.01-0.07,0.02c-0.02,0.01-0.05,0.01-0.07,0.02c-0.06,0.02-0.1,0.06-0.16,0.08c-0.04,0.02-0.09,0.04-0.12,0.07
			c-0.21,0.14-0.33,0.33-0.38,0.54c-0.01,0.04-0.02,0.09-0.03,0.13c0,0.03-0.01,0.06-0.01,0.08
			C377.04,578.42,377.14,578.74,377.45,578.93z M381.61,364.3c0-0.01-0.01-0.02-0.01-0.04c0.15-0.11,0.29-0.26,0.37-0.48
			c0.1-0.3,0.21-0.61,0.31-0.91c0.29-0.48,0.63-0.92,1.05-1.27c0.06-0.03,0.11-0.03,0.17-0.08c0.22-0.16,0.44-0.3,0.66-0.45
			c0.02-0.01,0.04-0.02,0.06-0.03c0.15-0.07,0.27-0.15,0.35-0.25c11.98-8.21,25.83-12.25,40.48-11.75
			c1.16,44.83,8.68,89.23,22.39,132.01c0.01,0.04,0.04,0.05,0.05,0.09c0,0,0,0.01,0,0.01c0,1.01,0,2.02,0,3.03
			c0,0.2,0.06,0.35,0.14,0.49c0.03,1.01,1.67,1.35,1.99,0.22c7.46-26.12,13.04-52.72,16.56-79.63c1.74-13.34,1.76-27.88,7.77-40.24
			c5.64-11.6,19.02-20.88,32.23-15.43c0.11,0.04,0.2,0.05,0.3,0.06c0.17,0.24,0.36,0.46,0.58,0.66
			c-5.36,75.12-6.72,150.47-4.07,225.73c0,0.06,0.03,0.11,0.04,0.16c-0.28,0.03-0.55,0.16-0.73,0.46
			c-5.55,9.08-18.66,7.86-22.17-2.18c-0.03-0.08-0.08-0.14-0.12-0.2c0.08-0.25,0.05-0.53-0.06-0.77c0.02-0.06,0.02-0.12,0.03-0.18
			c0.01-0.03,0.03-0.04,0.03-0.07c0.1-0.43,0.16-0.87,0.17-1.32c0-0.21-0.06-0.37-0.15-0.52c-0.46-55.98,0.45-111.96,2.72-167.9
			c0.02-0.54-0.33-0.84-0.75-0.93c0.07-0.54-0.25-1.13-0.96-1.13c-0.04,0-0.09,0-0.13,0c-0.35,0-0.6,0.15-0.76,0.36
			c-0.34-0.03-0.7,0.08-0.93,0.46c-5.06,8.21-7.45,17.32-7.07,26.89c-0.2,0.16-0.34,0.4-0.37,0.71c-0.05,0.59-0.38,1.15-0.45,1.76
			c-0.01,0.13,0.01,0.24,0.06,0.36c-8.32,48.46-17.84,96.72-28.53,144.74c-0.29-0.3-0.73-0.45-1.21-0.21
			c-2.39,1.2-6.34-20.13-6.76-22.17c-1.48-7.16-2.89-14.33-4.23-21.51c-2.84-15.21-5.36-30.48-7.55-45.79
			c-3.86-26.94-3.21-57.47-16.2-82.14c-0.35-0.66-1.07-0.59-1.51-0.21c-0.57-0.11-1.24,0.19-1.23,0.93
			c0.43,56.69,0.85,113.39,1.28,170.08c-7.17,2.16-14.41,2.89-21.76,2.17c0.65-0.42,1.07-1.08,1.06-2.13c0.1-0.14,0.18-0.3,0.2-0.5
			C392.29,505.07,391.17,434.24,381.61,364.3z"/>
		<path fill="#F2E606" d="M540.75,585.29c12.66-3.53,14.86-22.23,15-32.76c0.01-0.44-0.24-0.72-0.56-0.86
			c0.35-0.59,0.09-1.54-0.82-1.54c-3.17-0.02-4.61,2.18-7.43,2.9c-8.86,2.28-10.34-9.29-10.64-14.9
			c-0.59-11.31,5.1-26.31,17.17-30.21c10.47-3.38,9.37,6.13,9.19,11.92c-0.17,5.63-0.76,11.18-1.35,16.79
			c-1.23,11.73-1.77,24.13-0.52,35.88c-0.1,0.15-0.18,0.32-0.18,0.55c0.01,0.46,0.03,0.92,0.07,1.38c-0.18,0.21-0.26,0.49-0.14,0.84
			c2.96,8.65,10.4,12.54,19.65,11.56c2.66-0.28,5.66-1.11,6.99-3.62c2.27-4.27-1.97-9.53-3.02-13.37
			c-2.01-7.36-2.12-15.32-3.12-22.86c-1.13-8.53,0.62-17.46,0.75-26.12c0.25-17.37-0.08-34.62-0.23-51.98
			c0-0.13-0.04-0.24-0.07-0.34c0.04-0.11,0.07-0.22,0.07-0.36c-0.02-8.23-0.06-17.53-5.33-24.44c-4.37-5.73-11.79-9.2-18.9-10.07
			c-11.05-1.36-28.58,3.39-32.58,14.81c-0.24,0.05-0.47,0.2-0.62,0.49c-4.57,8.75-5.45,18.9-1.56,28.08
			c2.58,6.1,8.14,12.39,15.09,7.51c9.41-6.61,2.15-19.31,7.44-27.67c4.04-6.4,12.79-4.08,16.45,1.4c2.24,3.36,2.78,7.81,2.93,11.71
			c0.36,9.56-3.54,20.74-14.6,22.17c-0.45,0.06-0.73,0.34-0.87,0.68c0,0,0,0,0,0c-5.52-0.04-12.22,5.64-16.35,8.83
			c-5.29,4.09-9.22,9.75-11.58,15.89c-2.95,7.68-3.99,16.17-5.05,24.27c-1.06,8.12-1.63,16.54,0.06,24.63
			C518.22,576.77,528.67,588.66,540.75,585.29z M522.34,520.03c2.41-7.13,6.78-13.58,13.13-17.93c3.57-2.44,9.01-7.29,13.52-7.25
			c0.52,0,0.83-0.31,0.93-0.69c10.33-1.36,15.6-10.15,16.46-19.74c0.82-9.09-1.7-22.45-13.1-23.62c-8.91-0.91-12.02,7.87-12.21,15
			c-0.15,5.52,0.65,10.19-3.06,14.87c-5.47,6.92-11.49,1.04-13.89-5.11c-3.29-8.41-2.38-17.64,1.77-25.58
			c0.04-0.07,0.04-0.14,0.06-0.21c0.31-0.07,0.59-0.27,0.72-0.64c3.41-9.99,19.18-14.24,28.88-13.63c6.66,0.42,13.63,3.39,18.11,8.3
			c5.94,6.51,5.85,16.18,5.87,24.39c0,0.13,0.03,0.24,0.07,0.34c-0.04,0.11-0.07,0.22-0.07,0.36c0.1,12.26,0.96,24.43,0.53,36.7
			c-0.24,6.8-0.22,13.6-0.38,20.4c-0.12,5.45-1.59,10.89-1.3,16.31c0.53,9.93,1.63,21.62,4.83,31.15c1.33,3.97,5.4,7.97-0.7,10.95
			c-1.81,0.88-4.49,0.61-6.46,0.46c-6.75-0.54-11.18-3.54-13.43-9.87c0.09-0.14,0.15-0.31,0.13-0.53c-0.01-0.17-0.02-0.35-0.03-0.52
			c0.15-0.16,0.24-0.37,0.2-0.67c-2.12-18.77,1.33-37.46,1.88-56.18c0.11-3.57,0.53-8.39-2.84-10.79c-4.1-2.92-9.88-0.48-13.39,2.08
			c-11.04,8.05-15.89,20.32-13.92,33.63c0.69,4.68,2.37,11.25,7.39,13.27c4.66,1.87,7.45-2.74,11.75-3.12
			c-0.04,0.11-0.08,0.23-0.08,0.37c-0.12,9.86-2.49,31.06-16.4,31.2c-15.51,0.16-20.21-16.44-20.24-28.5
			C517.04,543.79,518.65,530.94,522.34,520.03z"/>
		<path fill="#F2E606" d="M620.23,584.11c11.58-5.14,12.04-22.42,9.69-32.72c0-0.01-0.01-0.01-0.01-0.02c0.11-0.63-0.4-1.4-1.24-1.2
			c-1.54,0.35-3.48,1.27-5.08,1.29c-6.6,0.08-7.4-5.13-8.41-9.2c-1.08-4.37-1.98-8.82-2.59-13.27c-1.36-9.99-1.75-20.28-1.85-30.36
			c-0.1-9.56,0.69-19.18,4.06-28.23c1.75-4.69,4.23-10.23,7.99-13.74c2.08-1.95,13.45-8.38,14.85-1.72c0.12,0.58,0.6,0.77,1.06,0.69
			c0,0.04-0.02,0.06-0.02,0.1c-0.07,16.41-0.95,32.75-0.38,49.17c0.57,16.57,0.52,33.19,0.25,49.77
			c-0.26,16.09-0.83,32.18-1.4,48.26c-0.28,8-1.88,15.66-2.96,23.56c-1.01,7.38-0.76,14.85-3.54,21.91
			c-0.11,0.27-0.08,0.5,0.02,0.69c-0.06,0.54,0.25,1.11,0.96,1.11c7.07-0.09,13.75,2.04,20.71-0.04c0.02-0.01,0.03-0.02,0.05-0.03
			c0.55,0.06,1.18-0.24,1.24-0.94c1.83-22.16,4.35-44.19,4.45-66.46c0.1-21.78-0.45-43.61-0.65-65.4c0.16-0.15,0.29-0.35,0.32-0.62
			c0.1-0.84,0.09-1.68,0.05-2.51c0.08-0.13,0.13-0.29,0.13-0.48c0.08-27.78,2.55-55.5,2.15-83.29c-0.01-0.88-0.96-1.14-1.56-0.82
			c-0.21-0.15-0.49-0.22-0.81-0.14c-5.24,1.18-9.63,4.36-14.79,5.72c-45.74-13.75-51.56,53.6-52.1,82.93
			c-0.31,16.78-1.39,34.24,4.58,50.29C599.12,578.41,607.83,589.62,620.23,584.11z M597.19,477.21c2.44-10.47,5.7-21.75,12.31-30.49
			c8.3-10.98,20.36-13.46,33.15-9.54c0.02,0.01,0.04,0,0.06,0.01c0.04,0.01,0.08,0.01,0.12,0.01c0.16,0.02,0.31,0.01,0.44-0.04
			c5.17-1.31,9.57-4.48,14.77-5.72c0.31,26.1-1.82,52.14-2.1,78.23c-0.33,0.13-0.59,0.42-0.59,0.87c0,0.18,0,0.35,0,0.53
			c0,0.26,0.1,0.46,0.23,0.61c0.04,0.6,0.09,1.2,0.13,1.8c-0.22,0.16-0.37,0.41-0.37,0.75c0.17,22.82,0.79,45.68,0.68,68.49
			c-0.1,21.96-2.54,43.69-4.37,65.53c-6.32,1.84-12.42,0.09-18.8-0.06c2.09-5.72,2.32-11.63,2.92-17.66
			c0.75-7.59,2.65-15.01,3.19-22.64c1.19-16.82,1.25-33.85,1.56-50.71c0.31-16.57,0.37-33.17-0.12-49.73
			c-0.51-17.28,0.23-34.46,0.3-51.73c0-0.68-0.57-0.99-1.11-0.95c0.02-0.12,0.03-0.24,0-0.37c-1.55-7.4-12.67-3.56-16.7-0.49
			c-10.19,7.78-13.26,23.98-14.01,35.8c-0.97,15.21-0.24,31.79,2.92,46.73c1.01,4.77,1.47,11.6,5.34,15.15
			c3.34,3.06,7.03,1.78,10.9,0.79c2.52,12-0.64,36.15-18.81,30.23c-13.59-4.43-16.23-27.78-16.4-39.54
			C592.54,521.13,592.18,498.71,597.19,477.21z"/>
		<path fill="#F2E606" d="M667.32,458.5c2.74,2.58,4.69-2.31,6.09,2.52c1.09,3.75-0.28,9.2-0.33,13.12
			c-0.1,8.62-0.48,17.23-0.53,25.86c0,0.29,0.11,0.5,0.27,0.66c0,0.92,0,1.84,0,2.76c0,0.35,0.15,0.59,0.37,0.75
			c0.4,10.22,1.7,20.33,1.39,30.61c-0.33,10.55-1.5,21.11-1.2,31.67c0.15,5.26-0.2,14.66,4.43,18.4c5.16,4.18,13.51,1.5,19.39,4.01
			c0.11,0.37,0.42,0.69,0.93,0.69c0.18,0,0.36,0,0.54,0c0.16,0,0.3-0.03,0.42-0.08c0.49,0.14,1.09-0.03,1.28-0.65
			c0.63-2.02,0.79-2.19,0.2-4.25c-0.48-1.66-1.85-3.09-2.51-4.7c-0.95-2.29-1.15-4.43-1.39-6.88c-0.71-7.47-1.04-14.94-1.09-22.44
			c0.24-12.41,1.19-24.45,0.39-36.89c-0.79-12.31-0.2-24.24,0.18-36.54c0.26-8.36,0.59-16.56,1.5-24.87
			c0.44-4,2.47-11.86-0.07-15.49c-0.14-0.2-0.32-0.3-0.51-0.37c-0.13-0.35-0.43-0.63-0.91-0.65c-10.54-0.43-22.48,6.93-28.31,15.25
			c-0.19,0.27-0.21,0.53-0.14,0.76C666.59,453.62,665.45,456.74,667.32,458.5z M695.81,437.74c0.01,0.01,0.01,0.02,0.01,0.03
			c2.76,3.93-0.18,14.29-0.69,18.73c-0.97,8.44-0.77,16.93-1.19,25.4c-0.58,11.58-0.54,22.77,0.17,34.36
			c0.68,11.12-0.25,21.99-0.53,33.06c-0.02,0.08-0.05,0.14-0.05,0.23c0,0.33,0.01,0.65,0.02,0.97c0,0.2-0.01,0.4-0.02,0.61
			c0,0.06,0.02,0.1,0.03,0.15c0.08,6.93,0.46,13.82,1,20.74c0.18,2.25,0.2,4.57,0.81,6.76c0.8,2.84,3.5,5.42,3.23,8.48
			c-0.05,0.01-0.1,0.01-0.14,0.03c-0.06-0.04-0.1-0.09-0.17-0.12c-5.27-2.29-11.04-0.68-16.27-2.53c-8.75-3.1-6.79-19.72-6.51-27.16
			c0.35-9.2,1.13-18.39,1.22-27.6c0.1-9.65-1.42-19.19-1.6-28.82c-0.01-0.28-0.12-0.48-0.27-0.64c0-0.14,0-0.27,0-0.41
			c0-0.28-0.11-0.49-0.26-0.65c0.09-12.04,1.13-24.15,0.93-36.17c-0.03-1.73,0.13-5.55-1.76-6.67c-0.51-0.3-1-0.14-1.51-0.37
			c-0.31-0.14-0.74,0.45-0.96,0.36c-1.9-0.76-3.22-1.55-1.68-3.97c0.16-0.24,0.18-0.48,0.13-0.69
			C675.13,444.27,686.21,437.52,695.81,437.74z"/>
		<path fill="#F2E606" d="M709.67,539.53c0.68,11.61,0.46,23.05,8.04,32.66c6.86,8.69,13.45,13.75,24.8,14.33
			c11.61,0.59,19.25-3.51,23.99-14.04c2.44-5.43,4.28-11.59,4.96-17.49c0.91-7.98-1.3-15.93-1.66-23.89
			c-0.05-1.11-1.6-1.26-1.96-0.44c-0.17,0.04-0.34,0.1-0.5,0.26c-0.24,0.23-0.48,0.47-0.72,0.7c-0.15,0.15-0.22,0.31-0.26,0.47
			c-0.07,0.09-0.14,0.19-0.18,0.32c-2.72,8.47-3.44,18.92-14.4,21.11c-9.85,1.97-17.64-8.66-20.49-16.56
			c-5.04-13.97-3.82-30.39-2.7-44.9c0.84-10.89,0.84-24.49,7.04-34c2.03-3.12,4.96-5.7,8.76-6.48c5.71-1.18,8.48,2.49,9.8,7.4
			c2.31,8.51-1.11,13.67-4.58,21.01c-0.05,0.1-0.06,0.2-0.07,0.3c-2.82,2.81-1.88,6.55,0.15,9.68c1.74,2.68,5,7.16,8.37,7.82
			c4.04,0.79,6.79-3.74,8.53-6.59c3.38-5.55,4.62-10.86,6.08-17.07c0.21-0.16,0.36-0.4,0.36-0.75
			c-0.08-12.67-1.17-30.22-13.66-37.55c-10.59-6.22-23.94-1.84-31.75,6.57c-9.1,9.8-15.18,25.53-16.47,38.55
			c-0.94,9.44-1.78,18.91-2.5,28.4c-0.75,9.97,1.03,19.61,1.27,29.52C709.75,539.01,709.65,539.23,709.67,539.53z M712.01,494.72
			c0.99-6.87,0.77-13.86,2.47-20.61c1.68-6.68,4.13-13.35,7.28-19.5c5.85-11.43,16.9-22.45,31.19-19.15
			c16.23,3.75,17.91,24.06,18.02,37.49c-0.1,0.11-0.19,0.24-0.23,0.43c-1.58,6.72-2.97,12.69-7.01,18.51
			c-1.75,2.51-4.71,5.1-7.59,2.47c-0.82-0.75-1.51-1.64-2.25-2.45c-2.37-2.61-6.33-7.12-2.68-10.44c0.26-0.23,0.33-0.51,0.3-0.76
			c2.88-6,6.29-10.62,5.5-17.56c-0.48-4.22-1.54-9.87-5.36-12.51c-9.46-6.55-18.65,6.28-21.04,13.63
			c-4.78,14.73-4.98,32.22-4.8,47.47c0.17,13.73,1.28,30.27,13.02,39.66c5.7,4.56,11.83,5.79,18.35,2.04
			c8.03-4.63,8.33-11.85,10.71-19.71c0.71,10.64,2.49,20.05-0.7,30.83c-1.61,5.44-4,12.38-8.62,16.21
			c-4.33,3.6-10.65,4.02-16.07,3.75c-11.34-0.57-18.89-6.88-25.02-15.95c-5.61-8.3-5.23-18.82-5.75-28.41
			c0.14-0.16,0.24-0.36,0.24-0.63c-0.12-7.11-1.47-14.19-1.65-21.3C710.14,510.53,710.91,502.35,712.01,494.72z"/>
		<path fill="#F2E606" d="M800.68,658.12c-1.89-9.77-6.46-18.92-14.22-25.46c-0.04-0.04-0.09-0.04-0.13-0.07
			c-0.03-0.03-0.04-0.06-0.08-0.08c-16.84-12.63-40.14-7.71-58.26-0.49c-7.11,2.83-13.3,7.15-19.35,11.72
			c-11.69,8.81-22.88,18.26-34.21,27.5c-11.47,9.35-22.67,19.34-34.76,27.95c-16.66,11.86-36.98,17.53-56.91,21.38
			c-54.64,10.56-111.61,8.84-164.92-7.99c-11.7-3.69-24.04-8.76-32.57-17.78c-9.94-10.51-12.39-26.14-8.02-39.64
			c4.13-12.75,14.75-20.13,25.24-27.63c4.71-3.36,11.02-7.65,10.41-14.13c-0.62-6.68-7.23-11.57-13.8-10.16
			c-6.73,1.44-12.7,6.67-17.48,11.23c-14.03,13.38-25.87,31.81-29.7,50.8c-2.59,12.85,0.1,24.41,9.11,34.04
			c8.93,9.55,21.04,16.12,32.99,21.32c34.94,15.2,74.42,20.99,112.37,22.18c43.24,1.36,87.75-3.81,128.19-19.4
			c18.84-7.26,36.79-16.92,52.43-29.6c17.45-14.15,32.88-31.03,53.46-41.03c10.53-5.11,23.46-8.36,34.12-1.71
			c9.03,5.63,13.07,14.99,18.61,23.44c1.62,2.48,4,5.59,6.63,2.47C803.48,672.64,801.62,662.97,800.68,658.12z M798.57,674.95
			c-2.27,2.72-3.89-1.93-5.2-4.15c-8.59-14.65-19.33-28.24-38.54-25c-20.56,3.47-38.24,19.37-53.21,32.55
			c-14.68,12.92-29.24,24.87-46.84,33.88c-37.6,19.24-80.76,27.14-122.85,28.55c-39.27,1.32-79.6-2.69-117.1-14.56
			c-21.57-6.83-56.46-19.47-61.35-44.8c-3.82-19.79,9.13-41.64,21.24-56.45c5.38-6.58,11.65-13.25,19.21-17.45
			c2.37-1.32,5.6-2.96,8.47-2.62c9.32,1.1,10.21,10.99,4.84,16.35c-6.58,6.56-15.4,10.56-21.96,17.27
			c-7.74,7.92-11.93,18.17-12.07,29.15c-0.26,21.44,14.23,35.05,33.27,42.94c21.01,8.7,44.64,12.51,67.09,15.81
			c24.19,3.56,48.82,4.15,73.16,1.75c35.91-3.55,73.41-10.58,101.97-33.41c17.72-14.17,35.08-28.77,52.82-42.91
			c14.41-11.48,28.1-20.18,46.55-23.73c12.79-2.46,26.3-1.92,37.02,6.04c8.82,7.47,13.47,18.6,14.36,29.88
			C799.66,666.66,800.43,672.72,798.57,674.95z"/>
	</g>
	<g>
		<path fill="#F2E606" d="M732.83,846.96c-0.67-3.89-0.75-7.92-0.79-11.86c-0.08-8.82-0.1-17.54,0.84-26.31
			c0.96-8.95-2.22-17.52-10.48-21.98c-5.1-2.75-9.38-1.85-14.74-0.64c-3.82,0.86-7.64,0.94-10.88,3.42c-0.4,0.31-0.8,0.09-0.97-0.27
			c-0.12-0.05-0.23-0.13-0.32-0.26c-1.66-2.5-4.85-4.32-7.9-4.37c0.04,0.09,0.06,0.19,0.06,0.3c0.07,6.11,0.72,12.17,1.04,18.27
			c0.31,5.9-0.18,11.68-0.46,17.57c-0.55,11.65-0.2,23.12-1.6,34.71c2.18-0.45,4.51-1.17,6.42-2.2c1.71-0.93,2.89-2.57,4.54-3.59
			c0.16-0.1,0.31-0.11,0.45-0.1c0.88-3.92,0.68-8.46,0.75-12.48c0.08-4.2,0.07-8.44-0.36-12.62c-0.58-5.69-1.68-11.3-1.45-17.06
			c0.39-9.85,5.14-16.62,15.77-15c10.83,1.65,9.53,17.37,9.16,25.51c-0.37,8.01-2.67,15.77-3.09,23.83
			c-0.25,4.78,0.01,9.5,4.46,12.41c3.33,2.19,7.75,3.69,11.68,2.55c0.2-0.06,0.37-0.03,0.51,0.05
			C734.86,853.47,733.42,850.35,732.83,846.96z"/>
		<path fill="#F2E606" d="M636.58,847.23c-0.75-3.33-0.39-6.87-0.32-10.26c0.19-8.67,0.18-17.34,0.35-26.01
			c0.16-7.94-0.78-18.26-8.2-23c-7.73-4.94-18.41-1.73-25.59,2.35c-0.69,0.39-1.3-0.4-1.05-0.96c-0.01-0.03-0.04-0.05-0.05-0.08
			c-2.03-5.79-0.76-12.11-0.61-18.1c0.17-6.58,1.31-14.26-0.67-20.71c-3.99,0.09-11.09,1.14-12.26,5.63
			c2.72,5.23,3.11,10.53,3.15,16.36c0.05,7.88,0.2,15.76,0.2,23.64c0,8.06-0.2,16.12-0.2,24.18c0,3.61-0.02,7.1,0.4,10.69
			c0.3,2.55,0.55,4.86-0.03,7.36c-0.02,0.08-0.06,0.14-0.09,0.2c0.03,0.08,0.05,0.16,0.05,0.26c0.02,3.5,0.3,7.2-0.68,10.61
			c-0.41,1.42-3.08,6.16-1.07,7.06c1.59,0.72,5.45-2.2,6.69-3.02c1.72-1.15,3.81-2.47,5.01-4.21c0.02-0.04,0.06-0.05,0.08-0.08
			c-0.31-5.4-0.28-10.81-0.43-16.22c-0.11-4.13-0.88-8.64-0.14-12.72c0-0.03-0.02-0.05-0.02-0.08c0.14-7.27-3.44-17.8,2.72-23.52
			c4.93-4.58,12.69-4.04,18.34-0.92c6.81,3.76,4.86,14.46,4.28,20.71c-0.43,4.64-1.31,9.11-2.35,13.65
			c-1.33,5.77-1.19,10.99-1.51,16.79c-0.01,0.11-0.04,0.2-0.07,0.29c1.56,3.29,3.43,5.82,7.15,6.99c3.53,1.12,7.33,1.24,11.03,1.26
			C639.24,852.6,637.29,850.37,636.58,847.23z"/>
		<path fill="#F2E606" d="M453.93,837.13c0.48-4.34,0.71-8.5,0.93-12.85c0.11-2.34,0.55-4.64,0.82-6.95
			c-0.01-0.06-0.03-0.1-0.03-0.17c0.1-9.23,2.72-21.91-4.75-29.06c-9.23-8.83-22.09-4.41-30.63,2.69c-0.06,0.05-0.13,0.08-0.2,0.11
			c-0.02,0.01-0.04,0.02-0.06,0.03c-0.03,0.01-0.05,0.02-0.08,0.02c-0.23,0.08-0.5,0.06-0.73-0.16
			c-9.02-8.54-22.88-10.58-32.96-2.64c-0.42,0.33-0.92,0.14-1.17-0.18c-0.05-0.03-0.11-0.04-0.16-0.08c-2.43-1.92-5.36-4-8.52-3
			c0.04,0.35-0.13,0.71-0.51,0.81c0.01,0.09,0.02,0.18,0,0.28c-0.5,2.36,0.84,4.18,1.29,6.39c0.59,2.87,0.73,6.04,1.03,8.95
			c0.61,5.93,0.3,11.93,0.4,17.89c0.09,5.38,0.2,10.79-0.72,16.12c-1.01,5.85-1.28,11.89-2.8,17.64c-0.01,0.05-0.04,0.08-0.06,0.12
			c0.06,0.18,0.07,0.38-0.02,0.59c-0.58,1.34,4.51,0.1,5.16-0.08c1.7-0.47,3.66-0.98,5.14-1.99c-0.94-2.76-0.57-5.67-0.59-8.58
			c-0.04-5.08-0.02-10.17-0.06-15.25c-0.05-5.15,0.02-10.3,0.3-15.45c0.19-3.5,0.22-7.63,1.65-10.9c2.4-5.49,8.73-10.71,14.99-9.58
			c5.79,1.04,8.35,6.58,9.89,11.67c0.01,0.04,0,0.06,0.01,0.1c0.13,0.09,0.23,0.22,0.25,0.43c0.79,5.58,0.37,11.05,0.06,16.64
			c-0.31,5.51,0.41,10.92,0.28,16.41c-0.11,4.53-1.57,8.28-2.57,12.63c-1.81,7.8,5.81,5.41,9.81,3.21
			c2.94-8.64,0.66-19.36,0.74-28.38c0.05-5.07,0.3-10.11,0.12-15.18c-0.11-3.25-0.04-6.39,1.28-9.41c2.71-6.16,9.19-9.9,15.88-9.19
			c6.86,0.73,8.85,5.16,10.27,11.16c0.01,0.06,0,0.11,0.01,0.17c0.16,0.12,0.27,0.3,0.28,0.56c0.42,9.72-3.57,18.65-5.2,28.09
			c-0.81,4.71-1.56,10.26-1.29,15.09c0.42,7.52,6.91,8.31,12.86,8.29c0.03,0,0.06,0.01,0.09,0.02c3.66-0.89,0.06-6.27-0.41-8.19
			C453.27,843.08,453.61,840.03,453.93,837.13z"/>
		<path fill="#F2E606" d="M661.85,769.37c1.96,0.11,4.35,0.43,5.58-1.47c0.96-1.49,0.89-3.71,0.51-5.36
			c-0.89-3.77-6.28-5.86-9.72-4.01c-4.01,2.15-3.24,8.68-3.04,12.9C656.85,769.4,659.14,769.21,661.85,769.37z"/>
		<path fill="none" d="M760.48,819.58c0.26,0,0.53,0,0.79,0c0.17,0,0.29,0.05,0.4,0.13c0.06-0.04,0.11-0.08,0.19-0.1
			c5.47-1.6,10.17-3.99,12.76-9.36c2.66-5.52,3.21-12.96-4.02-14.76c-6.84-1.7-10.93,3.12-12.94,9.02
			c-1.97,5.82-0.31,10.05,2.63,15.11C760.36,819.6,760.41,819.58,760.48,819.58z"/>
		<path fill="#F2E606" d="M779.84,841.38c-3.17,1.79-6.47,2.56-10.11,2.3c-8.02-0.56-9.77-6.22-9.74-13.33
			c0-0.13,0.03-0.23,0.07-0.33c-0.14-0.38-0.03-0.83,0.48-0.92c9.4-1.64,19.31-4.45,24.78-12.98c4.67-7.28,4.57-18.45-1.64-24.8
			c-0.12-0.12-0.17-0.26-0.19-0.39c-0.17-0.04-0.33-0.12-0.45-0.29c-5.13-6.84-16.36-5.11-23.06-1.46
			c-5.05,2.75-8.65,7.32-11.03,12.48c-4.74,10.27-5.17,22.38-3.81,33.44c0.04,0.29-0.08,0.48-0.26,0.59
			c1.44,6.47,2.85,12.79,8.98,16.58c4.95,3.06,11.1,3.7,16.79,3.16c6.49-0.61,12.22-2.65,15.66-8.5c2.36-4.01,3.28-8.71,3.25-13.32
			C786.06,835.75,783.52,839.31,779.84,841.38z M759.04,820.44c-4.13-7.1-5.01-12.78-1.19-20.36c2.77-5.49,8.41-7.77,14.27-5.72
			c6.23,2.19,6.81,8.17,4.95,13.8c-2.42,7.29-7.72,10.8-14.81,12.88c-0.24,0.07-0.45,0.02-0.6-0.09c-0.11,0.07-0.23,0.12-0.39,0.12
			c-0.26,0-0.53,0-0.79,0c-0.29,0-0.48-0.14-0.59-0.32C759.59,820.85,759.25,820.79,759.04,820.44z"/>
		<path fill="#F2E606" d="M456.25,829.13c0.25-5.27,1.32-10.67,1.16-15.92c0-0.15-0.05-0.27-0.12-0.37
			c0.47-9.87,1.4-21.45-7.5-27.53c-10.06-6.87-21.38-2.99-30.02,3.97c-9.51-8.6-23.51-10.42-34-2.62c-3.16-2.47-6.68-4.6-10.71-2.85
			c-0.56,0.24-0.46,0.85-0.08,1.17c0,0.03,0.01,0.05,0.01,0.08c-0.25,0.04-0.47,0.19-0.54,0.52c-0.38,1.77-0.13,2.54,0.4,4.36
			c0.85,2.89,1.15,5.66,1.51,8.65c0.72,5.96,0.66,11.81,0.71,17.8c0.06,6.18,0.41,12.41-0.62,18.54c-0.98,5.83-1.3,11.94-2.8,17.64
			c-0.05,0.18-0.02,0.33,0.04,0.46c-2.16,5.38,10.6,1.1,12.41-0.14c0.07-0.04,0.1-0.1,0.15-0.15c0.45-0.07,0.89-0.57,0.65-1.14
			c-1.22-2.79-0.64-6.15-0.67-9.11c-0.03-3.43-0.03-6.86-0.02-10.3c0.01-6.63-0.09-13.25,0.26-19.87c0.4-7.44,1.64-13.73,8.51-17.82
			c7.68-4.57,13.09,2.83,15.07,9.41c0.05,0.17,0.15,0.29,0.27,0.37c0,0.05-0.02,0.1-0.01,0.15c1.2,8.46-0.54,16.91-0.03,25.39
			c0.25,4.14,0.66,8.34-0.18,12.45c-0.58,2.84-1.83,5.5-2.33,8.36c-1.48,8.57,7.47,6.24,12.34,3.56c0.16-0.09,0.24-0.2,0.3-0.33
			c0.13-0.08,0.25-0.2,0.31-0.38c1.92-5.48,1.31-11.2,0.98-16.89c-0.39-6.85-0.16-13.76,0.06-20.61c0.23-7.22-1.45-14.73,4.53-20.24
			c3.37-3.1,8.72-4.44,13.13-3.08c4.85,1.49,5.74,5.37,6.75,9.66c0.04,0.17,0.13,0.29,0.24,0.37c0.31,7.48-2.04,14.37-3.83,21.52
			c-1.48,5.93-2.06,11.79-2.52,17.87c-0.31,4.11-0.26,8.28,3.16,11.13c3.11,2.59,7.24,2.42,11.06,2.41c0.05,0,0.08-0.02,0.12-0.02
			c0.1,0.02,0.22,0.03,0.34,0c5.86-1.37,0.97-7.77,0.51-11.35C454.6,839.24,456.01,834.15,456.25,829.13z M454.38,854.15
			c-0.03,0-0.06-0.02-0.09-0.02c-5.95,0.02-12.44-0.76-12.86-8.29c-0.27-4.83,0.48-10.38,1.29-15.09c1.63-9.44,5.62-18.37,5.2-28.09
			c-0.01-0.25-0.13-0.44-0.28-0.56c0-0.06,0.01-0.11-0.01-0.17c-1.42-6-3.41-10.43-10.27-11.16c-6.7-0.71-13.17,3.03-15.88,9.19
			c-1.33,3.01-1.4,6.16-1.28,9.41c0.18,5.07-0.07,10.11-0.12,15.18c-0.08,9.02,2.2,19.74-0.74,28.38c-4,2.2-11.62,4.58-9.81-3.21
			c1.01-4.34,2.46-8.09,2.57-12.63c0.13-5.49-0.59-10.9-0.28-16.41c0.32-5.59,0.73-11.07-0.06-16.64c-0.03-0.21-0.13-0.34-0.25-0.43
			c-0.01-0.03,0-0.06-0.01-0.1c-1.54-5.09-4.1-10.63-9.89-11.67c-6.26-1.12-12.59,4.09-14.99,9.58c-1.43,3.27-1.46,7.4-1.65,10.9
			c-0.27,5.14-0.34,10.3-0.3,15.45c0.05,5.08,0.03,10.17,0.06,15.25c0.02,2.92-0.35,5.82,0.59,8.58c-1.48,1.01-3.44,1.52-5.14,1.99
			c-0.65,0.18-5.74,1.42-5.16,0.08c0.09-0.21,0.08-0.41,0.02-0.59c0.02-0.04,0.05-0.07,0.06-0.12c1.51-5.75,1.79-11.79,2.8-17.64
			c0.92-5.33,0.81-10.74,0.72-16.12c-0.1-5.95,0.22-11.95-0.4-17.89c-0.3-2.91-0.44-6.08-1.03-8.95c-0.46-2.21-1.8-4.04-1.29-6.39
			c0.02-0.1,0.02-0.19,0-0.28c0.38-0.1,0.55-0.46,0.51-0.81c3.16-0.99,6.09,1.09,8.52,3c0.05,0.04,0.1,0.05,0.16,0.08
			c0.25,0.33,0.75,0.51,1.17,0.18c10.08-7.95,23.94-5.9,32.96,2.64c0.23,0.22,0.5,0.24,0.73,0.16c0.03-0.01,0.05-0.01,0.08-0.02
			c0.02-0.01,0.04-0.02,0.06-0.03c0.07-0.03,0.14-0.05,0.2-0.11c8.54-7.1,21.4-11.51,30.63-2.69c7.47,7.15,4.85,19.82,4.75,29.06
			c0,0.06,0.02,0.11,0.03,0.17c-0.28,2.31-0.71,4.61-0.82,6.95c-0.21,4.35-0.45,8.51-0.93,12.85c-0.32,2.9-0.66,5.95,0.04,8.83
			C454.43,847.87,458.04,853.26,454.38,854.15z"/>
		<path fill="#F2E606" d="M515.87,836.79c-0.23-2.94,0.94-5.9,1.03-8.86c0.12-3.69,0.11-7.39,0.3-11.08
			c0.35-6.66-0.34-13.28-0.42-19.94c0-0.07,0.02-0.14,0.06-0.2c-0.03-0.06-0.06-0.11-0.06-0.19c-0.02-4.46,0.06-9.71-4.68-13.25
			c-3.57-2.67-9.12-4.28-14.43-4.51c-7.73-0.34-20.3,1.97-23.02,7.4c-0.1,0.21-0.33,0.31-0.58,0.35c-0.02,0.04-0.02,0.08-0.05,0.11
			c-3.3,4.31-4.03,9.32-1.41,13.9c1.92,3.34,6.71,6.54,11.08,2.77c2.95-2.54,2.32-5.08,2.44-8.08c0.16-3.88,2.63-8.65,9.74-8.15
			c9.09,0.63,11.09,7.9,10.44,12.83c-0.69,5.21-4.89,9.98-13.12,10.72c-0.09,0.21-0.33,0.38-0.74,0.38
			c-3.59-0.02-7.93,2.61-10.78,3.94c-5.06,2.36-8.54,5.87-10.47,9.74c-2.94,5.93-4.23,12.91-4.21,19.13
			c0.02,6.55,3.77,15.57,16.13,15.49c11.09-0.08,12.98-11.6,13.08-16.95c0-0.08,0.03-0.14,0.06-0.2c-3.43,0.21-5.66,2.71-9.37,1.69
			c-4-1.1-5.34-4.66-5.89-7.21c-1.57-7.24,2.3-13.9,11.1-18.27c2.8-1.39,7.4-2.72,10.68-1.13c2.69,1.31,2.35,3.92,2.26,5.86
			c-0.44,10.17-3.19,20.33-1.5,30.52c0.03,0.16-0.05,0.28-0.16,0.36c0.01,0.09,0.01,0.19,0.02,0.28c0.01,0.12-0.03,0.21-0.1,0.29
			c1.79,3.44,5.32,5.07,10.71,5.36c1.57,0.08,3.71,0.23,5.15-0.25c4.86-1.62,1.62-3.79,0.56-5.95
			C517.17,848.53,516.29,842.18,515.87,836.79z"/>
		<path fill="#F2E606" d="M566.05,780.32c-12.65-1.77-22.43,4.12-27.61,10.23c-2.79,3.29-4.96,6.85-6.44,10.42
			c-1.5,3.61-1.31,7.35-2.19,11.01c-0.97,4.07-1.66,8.45-1.48,12.56c0.16,3.8,1.35,7.58,1.46,11.38c0,0.15-0.08,0.25-0.21,0.34
			c0.46,5.13,0.12,10.75,5.09,15.18c5.43,4.84,12.11,8.22,22.15,8.52c4.8,0.15,10.39-0.08,14.23-2.01c4.09-2.05,6.2-5.75,7.63-8.66
			c2.83-5.76,1.25-10.79,0.62-16.47c-2.11,4.2-2.37,8.06-9.48,10.53c-5.76,2.01-11.2,1.35-16.24-1.09
			c-10.39-5.02-11.38-13.85-11.53-21.19c-0.17-8.14,0.01-17.49,4.24-25.36c2.11-3.93,10.25-10.78,18.62-7.29
			c3.38,1.41,4.32,4.43,4.74,6.69c0.69,3.71-2.32,6.18-4.87,9.38c0.03,0.14-0.04,0.28-0.27,0.41c-3.23,1.78,0.27,4.18,2.37,5.58
			c0.66,0.44,1.27,0.91,2,1.31c2.55,1.4,5.17,0.02,6.72-1.32c3.58-3.11,4.81-6.3,6.21-9.89c0.04-0.1,0.11-0.17,0.2-0.23
			C581.9,793.18,580.41,782.32,566.05,780.32z"/>
		<path fill="#F2E606" d="M670.54,852.24c-0.45-3.52-0.77-7.01-0.84-10.54c-0.01-0.03-0.02-0.05-0.02-0.07
			c0-0.1,0.01-0.21,0.01-0.31c0-0.17-0.01-0.33-0.01-0.49c0-0.04,0.02-0.08,0.04-0.12c0.23-5.63,1.02-11.15,0.44-16.8
			c-0.6-5.89-0.63-11.58-0.14-17.46c0.36-4.31,0.19-8.62,1-12.91c0.43-2.25,2.9-7.52,0.58-9.52c-0.01-0.01-0.01-0.01-0.01-0.02
			c-8.06-0.11-17.36,3.32-21.89,7.16c0.04,0.11,0.03,0.23-0.11,0.35c-1.3,1.23-0.19,1.63,1.41,2.02c0.19,0.05,0.55-0.26,0.81-0.18
			c0.43,0.12,0.85,0.04,1.27,0.19c1.59,0.57,1.45,2.51,1.48,3.39c0.17,6.11-0.7,12.27-0.78,18.38c0.13,0.08,0.22,0.19,0.22,0.33
			c0,0.07,0,0.14,0,0.21c0.13,0.08,0.22,0.19,0.23,0.33c0.15,4.9,1.42,9.75,1.34,14.65c-0.08,4.68-0.74,9.35-1.03,14.03
			c-0.24,3.78-1.88,12.23,5.47,13.8c4.39,0.94,9.24,0.12,13.66,1.28c0.06,0.02,0.09,0.04,0.14,0.06c0.04-0.01,0.08-0.01,0.12-0.01
			c0.23-1.56-2.04-2.87-2.71-4.31C670.7,854.56,670.69,853.38,670.54,852.24z"/>
		<path fill="#F2E606" d="M642.08,855.4c0.08-0.19,0.09-0.4-0.02-0.63c-1.12-2.2-2.82-4.05-3.6-6.44c-0.92-2.82-0.83-5.85-0.77-8.78
			c0.11-5.3-0.02-10.58-0.01-15.88c0.02-9.1,1.72-18.6-1.47-27.38c-2-5.51-5.72-10.06-11.6-11.5c-3.75-0.92-7.73-0.67-11.51-0.05
			c-4.05,0.67-6.76,1.9-10.06,3.73c-2.06-6.38-0.62-14.3-0.29-20.87c0.28-5.68,0.83-12.4-0.97-17.89c-0.1-0.3-0.32-0.44-0.56-0.49
			c-0.12-0.15-0.3-0.26-0.56-0.26c-4.69,0.06-12.72,1.39-13.98,6.88c-0.03,0.13-0.02,0.24,0,0.34c-0.02,0.14,0,0.28,0.08,0.43
			c3.34,6.26,3.03,12.89,3.08,19.78c0.05,7.22,0.21,14.44,0.18,21.66c-0.03,7.1-0.19,14.2-0.19,21.29c0,2.94-0.13,5.91,0.06,8.84
			c0.22,3.32,1.14,6.41,0.36,9.75c-0.04,0.17-0.01,0.32,0.04,0.45c-0.08,0.11-0.13,0.24-0.13,0.41c0.02,3.21,0.32,6.63-0.5,9.77
			c-0.41,1.56-1.15,3.01-1.59,4.56c-0.5,1.79-0.94,4.18,1.32,4.78c2.3,0.61,5.54-1.62,7.3-2.74c2.14-1.36,4.7-3.02,6.18-5.14
			c0.2-0.11,0.35-0.31,0.33-0.62c-0.29-4.88-0.3-9.75-0.4-14.64c-0.09-4.55-1.06-9.76-0.22-14.24c0.02-0.09,0.01-0.18,0-0.26
			c0.01-0.05,0.03-0.08,0.03-0.14c0.12-6.45-3.15-16.7,1.77-22c3.6-3.88,8.87-3.67,13.59-2.34c5.36,1.51,7.36,5.22,7.55,10.62
			c0.25,7.09-0.84,14.56-2.43,21.43c-0.69,3.01-1.5,6.04-1.88,9.11c-0.41,3.22,0.03,6.42-0.11,9.65c-0.17,0.21-0.24,0.5-0.1,0.81
			c1.43,3.11,3.15,5.99,6.37,7.48c4.42,2.04,9.9,1.97,14.65,1.99C642.94,856.89,642.96,855.49,642.08,855.4z M622.5,847.12
			c0.04-0.08,0.07-0.18,0.07-0.29c0.31-5.8,0.17-11.02,1.51-16.79c1.05-4.54,1.93-9.01,2.35-13.65c0.57-6.25,2.53-16.95-4.28-20.71
			c-5.65-3.11-13.41-3.66-18.34,0.92c-6.16,5.72-2.58,16.25-2.72,23.52c0,0.03,0.01,0.05,0.02,0.08c-0.74,4.08,0.03,8.59,0.14,12.72
			c0.15,5.41,0.12,10.81,0.43,16.22c-0.03,0.03-0.06,0.05-0.08,0.08c-1.2,1.74-3.29,3.06-5.01,4.21c-1.24,0.83-5.1,3.74-6.69,3.02
			c-2-0.91,0.67-5.65,1.07-7.06c0.98-3.41,0.7-7.1,0.68-10.61c0-0.1-0.03-0.18-0.05-0.26c0.04-0.06,0.07-0.12,0.09-0.2
			c0.58-2.5,0.33-4.81,0.03-7.36c-0.42-3.59-0.4-7.08-0.4-10.69c0-8.06,0.19-16.12,0.2-24.18c0-7.88-0.15-15.76-0.2-23.64
			c-0.04-5.83-0.43-11.13-3.15-16.36c1.17-4.5,8.28-5.55,12.26-5.63c1.99,6.45,0.84,14.13,0.67,20.71
			c-0.16,5.99-1.42,12.31,0.61,18.1c0.01,0.03,0.03,0.05,0.05,0.08c-0.25,0.56,0.37,1.35,1.05,0.96c7.17-4.09,17.86-7.3,25.59-2.35
			c7.42,4.74,8.36,15.06,8.2,23c-0.17,8.67-0.16,17.34-0.35,26.01c-0.07,3.38-0.44,6.92,0.32,10.26c0.71,3.14,2.66,5.37,4.1,8.14
			c-3.7-0.03-7.5-0.15-11.03-1.26C625.93,852.94,624.06,850.41,622.5,847.12z"/>
		<path fill="#F2E606" d="M654.86,773.2c0.32,0.19,0.78,0.18,1.04-0.23c2.85-4.63,9.39,0.32,12.54-3.9
			c1.96-2.62,1.67-7.69-0.58-10.09c-2.43-2.6-7.92-3.45-10.91-1.47c-4.52,2.98-3.29,10.57-3.24,15.07
			C653.72,773.26,654.42,773.45,654.86,773.2z M658.21,758.52c3.45-1.85,8.84,0.24,9.72,4.01c0.39,1.65,0.45,3.87-0.51,5.36
			c-1.23,1.91-3.62,1.58-5.58,1.47c-2.71-0.15-5,0.03-6.68,2.06C654.97,767.2,654.2,760.67,658.21,758.52z"/>
		<path fill="#F2E606" d="M733.55,824.3c0-5.25,0.26-10.3,0.83-15.51c0.46-4.18,0.44-8.06-1.2-11.98
			c-2.58-6.18-7.93-11.46-14.54-13.12c-4-1.01-7.48,0.16-11.38,1.04c-3.78,0.85-7.51,1.01-10.74,3.21
			c-2.12-2.92-5.99-5.03-9.62-4.76c-0.71,0.05-0.9,0.9-0.55,1.3c-0.12,0.12-0.21,0.29-0.2,0.51c0.07,6.11,0.72,12.17,1.04,18.27
			c0.31,5.9-0.18,11.68-0.46,17.57c-0.56,11.78-0.18,23.38-1.64,35.11c-0.01,0.12,0,0.22,0.03,0.31c-0.07,0.46,0.3,1.04,0.92,0.94
			c2.43-0.41,4.86-1.24,7.1-2.25c2.05-0.93,3.32-2.73,5.21-3.89c0.2-0.12,0.3-0.29,0.33-0.46c0.34,0.06,0.7-0.08,0.8-0.52
			c1.41-6.28,0.95-13.62,0.78-20.03c-0.16-5.86-1.34-11.58-1.69-17.42c-0.33-5.52-0.58-14.33,4.92-17.6
			c2.72-1.62,7.13-1.62,10.15-0.85c4.46,1.14,5.57,4.84,6.13,8.96c0.97,7.08,1.06,14.52-0.17,21.55
			c-1.16,6.64-2.49,13.22-2.38,20.01c0.15,8.99,9.06,16.19,18.13,13.56c0.42-0.12,0.56-0.49,0.51-0.83c0.47,0.19,1.2-0.2,1.07-0.88
			c-0.95-5.28-2.83-10.02-3.2-15.47C733.37,835.49,733.55,829.88,733.55,824.3z M734.97,856.79c-3.93,1.14-8.35-0.36-11.68-2.55
			c-4.44-2.92-4.7-7.63-4.46-12.41c0.42-8.05,2.72-15.81,3.09-23.83c0.37-8.14,1.67-23.87-9.16-25.51
			c-10.63-1.62-15.37,5.15-15.77,15c-0.23,5.75,0.87,11.36,1.45,17.06c0.42,4.18,0.44,8.42,0.36,12.62
			c-0.07,4.02,0.13,8.56-0.75,12.48c-0.14-0.02-0.29,0-0.45,0.1c-1.66,1.02-2.84,2.66-4.54,3.59c-1.9,1.04-4.23,1.76-6.42,2.2
			c1.4-11.59,1.05-23.06,1.6-34.71c0.28-5.89,0.76-11.67,0.46-17.57c-0.32-6.1-0.97-12.16-1.04-18.27c0-0.11-0.03-0.21-0.06-0.3
			c3.05,0.05,6.24,1.87,7.9,4.37c0.09,0.13,0.2,0.21,0.32,0.26c0.18,0.36,0.57,0.58,0.97,0.27c3.24-2.48,7.07-2.56,10.88-3.42
			c5.36-1.21,9.64-2.12,14.74,0.64c8.26,4.46,11.44,13.03,10.48,21.98c-0.94,8.77-0.92,17.49-0.84,26.31
			c0.04,3.94,0.12,7.97,0.79,11.86c0.58,3.39,2.02,6.51,2.65,9.88C735.34,856.77,735.17,856.74,734.97,856.79z"/>
		<path fill="#F2E606" d="M791.04,831.93c-0.05-0.94-1.46-0.96-1.49-0.07c-4.69,2.48-7.46,7.22-12.61,9.23
			c-2.97,1.16-6.51,1.62-9.64,0.7c-5.48-1.6-5.82-6.55-5.8-11.35c10.49-1.89,21.68-5.67,26.51-16.1c3.53-7.62,2.74-17.96-3.26-24.09
			c-0.1-0.1-0.21-0.16-0.32-0.19c-0.02-0.06-0.04-0.12-0.09-0.19c-8.28-11.04-26.59-3.89-33.37,5.35
			c-7.89,10.75-8.88,25.81-7.45,38.71c-0.27,0.15-0.46,0.43-0.37,0.82c1.55,6.87,2.73,13.71,8.86,18.06
			c5.72,4.06,13.23,4.81,20.02,3.95c5.64-0.72,10.7-2.4,14.25-7.08C790.08,844.69,791.36,838.11,791.04,831.93z M786.32,846.93
			c-3.45,5.85-9.18,7.89-15.66,8.5c-5.69,0.54-11.85-0.1-16.79-3.16c-6.13-3.79-7.54-10.12-8.98-16.58c0.18-0.11,0.3-0.3,0.26-0.59
			c-1.36-11.07-0.93-23.17,3.81-33.44c2.38-5.16,5.98-9.73,11.03-12.48c6.7-3.64,17.93-5.37,23.06,1.46
			c0.12,0.17,0.29,0.25,0.45,0.29c0.02,0.13,0.07,0.27,0.19,0.39c6.21,6.34,6.31,17.52,1.64,24.8
			c-5.47,8.53-15.39,11.35-24.78,12.98c-0.51,0.09-0.62,0.54-0.48,0.92c-0.05,0.09-0.07,0.2-0.07,0.33
			c-0.04,7.12,1.72,12.77,9.74,13.33c3.64,0.26,6.94-0.51,10.11-2.3c3.68-2.07,6.22-5.63,9.74-7.78
			C789.6,838.22,788.69,842.92,786.32,846.93z"/>
		<path fill="#F2E606" d="M760.48,821.08c0.26,0,0.53,0,0.79,0c0.16,0,0.28-0.05,0.39-0.12c0.16,0.11,0.36,0.16,0.6,0.09
			c7.09-2.07,12.39-5.59,14.81-12.88c1.87-5.63,1.28-11.62-4.95-13.8c-5.86-2.06-11.5,0.22-14.27,5.72
			c-3.82,7.57-2.95,13.26,1.19,20.36c0.2,0.35,0.55,0.41,0.84,0.31C760.01,820.94,760.2,821.08,760.48,821.08z M757.67,804.51
			c2-5.9,6.1-10.73,12.94-9.02c7.23,1.8,6.68,9.24,4.02,14.76c-2.59,5.36-7.3,7.76-12.76,9.36c-0.08,0.02-0.13,0.06-0.19,0.1
			c-0.11-0.07-0.24-0.13-0.4-0.13c-0.26,0-0.53,0-0.79,0c-0.07,0-0.12,0.02-0.18,0.04C757.36,814.56,755.7,810.33,757.67,804.51z"/>
	</g>
	
		<radialGradient id="SVGID_3_" cx="175.7514" cy="673.0004" r="83" gradientTransform="matrix(5.6627 0 0 1.3855 -422.2188 -112.4704)" gradientUnits="userSpaceOnUse">
		<stop  offset="0" style="stop-color:#E96800;stop-opacity:0.25"/>
		<stop  offset="1" style="stop-color:#000000;stop-opacity:0"/>
	</radialGradient>
	<ellipse fill="url(#SVGID_3_)" cx="573" cy="820" rx="470" ry="115"/>
</g>
</svg>
